<svg xmlns="http://www.w3.org/2000/svg" viewBox="0 0 256 256" role="img" aria-label="Agent Notify icon">
  <defs>
    <linearGradient id="bg" x1="48" y1="28" x2="214" y2="232" gradientUnits="userSpaceOnUse">
      <stop offset="0" stop-color="#0f766e"/>
      <stop offset="0.52" stop-color="#2563eb"/>
      <stop offset="1" stop-color="#111827"/>
    </linearGradient>
    <linearGradient id="card" x1="62" y1="72" x2="197" y2="183" gradientUnits="userSpaceOnUse">
      <stop offset="0" stop-color="#ffffff"/>
      <stop offset="1" stop-color="#dbeafe"/>
    </linearGradient>
    <filter id="shadow" x="-20%" y="-20%" width="140%" height="150%">
      <feDropShadow dx="0" dy="12" stdDeviation="12" flood-color="#0f172a" flood-opacity="0.32"/>
    </filter>
  </defs>
  <rect x="18" y="18" width="220" height="220" rx="54" fill="url(#bg)"/>
  <path d="M57 178c-12 0-22-10-22-22V89c0-12 10-22 22-22h125c12 0 22 10 22 22v67c0 12-10 22-22 22h-62l-36 30v-30H57z" fill="url(#card)" filter="url(#shadow)"/>
  <path d="M69 103h74" stroke="#0f172a" stroke-width="13" stroke-linecap="round"/>
  <path d="M69 132h96" stroke="#2563eb" stroke-width="13" stroke-linecap="round"/>
  <path d="M69 158h52" stroke="#0f766e" stroke-width="13" stroke-linecap="round"/>
  <circle cx="185" cy="70" r="34" fill="#f59e0b"/>
  <path d="M176 69l7 8 17-19" fill="none" stroke="#ffffff" stroke-width="9" stroke-linecap="round" stroke-linejoin="round"/>
  <path d="M51 50c-10 9-16 21-18 35M31 122c1 13 6 26 15 37" fill="none" stroke="#67e8f9" stroke-width="8" stroke-linecap="round" opacity="0.7"/>
</svg>
